<svg xmlns="http://www.w3.org/2000/svg" xmlns:xlink="http://www.w3.org/1999/xlink" width="1080" zoomAndPan="magnify" viewBox="0 0 810 809.999993" height="1080" preserveAspectRatio="xMidYMid meet" version="1.0"><defs><g/><clipPath id="f2dd59382c"><path d="M 139 30.976562 L 681 30.976562 L 681 753 L 139 753 Z M 139 30.976562 " clip-rule="nonzero"/></clipPath></defs><g clip-path="url(#f2dd59382c)"><path fill="#d22832" d="M 381.933594 738.425781 C 177.035156 441.386719 139.003906 410.902344 139.003906 301.734375 C 139.003906 152.199219 260.226562 30.976562 409.761719 30.976562 C 559.296875 30.976562 680.515625 152.199219 680.515625 301.734375 C 680.515625 410.902344 642.484375 441.386719 437.585938 738.425781 C 424.140625 757.851562 395.378906 757.847656 381.933594 738.425781 Z M 381.933594 738.425781 " fill-opacity="1" fill-rule="nonzero"/></g><g fill="#ffffff" fill-opacity="1"><g transform="translate(224.033195, 405.063225)"><g><path d="M 231.75 0 L 170.796875 0 L 154.96875 -51.3125 L 77.140625 -51.3125 L 60.953125 0 L 1.375 0 L 81.265625 -227.28125 L 152.203125 -227.28125 Z M 88.15625 -91.59375 L 143.9375 -91.59375 L 116.046875 -183.546875 Z M 88.15625 -91.59375 "/></g></g></g><g fill="#ffffff" fill-opacity="1"><g transform="translate(437.537552, 405.063225)"><g><path d="M 65.765625 0 L 65.765625 -130.859375 C 65.765625 -136.828125 65.820312 -142.96875 65.9375 -149.28125 C 66.050781 -155.59375 66.109375 -162.078125 66.109375 -168.734375 C 58.535156 -161.847656 50.15625 -155.820312 40.96875 -150.65625 C 31.789062 -145.488281 22.148438 -141.988281 12.046875 -140.15625 L 6.546875 -189.046875 C 12.515625 -189.503906 18.882812 -190.992188 25.65625 -193.515625 C 32.425781 -196.046875 39.140625 -199.148438 45.796875 -202.828125 C 52.453125 -206.503906 58.421875 -210.460938 63.703125 -214.703125 C 68.984375 -218.953125 73.003906 -223.144531 75.765625 -227.28125 L 122.9375 -227.28125 L 122.9375 0 Z M 65.765625 0 "/></g></g></g></svg>