<svg xmlns="http://www.w3.org/2000/svg" xmlns:xlink="http://www.w3.org/1999/xlink" width="1080" zoomAndPan="magnify" viewBox="0 0 810 809.999993" height="1080" preserveAspectRatio="xMidYMid meet" version="1.0"><defs><g/><clipPath id="b9fb13bcb9"><path d="M 139 30.976562 L 681 30.976562 L 681 753 L 139 753 Z M 139 30.976562 " clip-rule="nonzero"/></clipPath></defs><g clip-path="url(#b9fb13bcb9)"><path fill="#d22832" d="M 381.933594 738.425781 C 177.035156 441.386719 139.003906 410.902344 139.003906 301.734375 C 139.003906 152.199219 260.226562 30.976562 409.761719 30.976562 C 559.296875 30.976562 680.515625 152.199219 680.515625 301.734375 C 680.515625 410.902344 642.484375 441.386719 437.585938 738.425781 C 424.140625 757.851562 395.378906 757.847656 381.933594 738.425781 Z M 381.933594 738.425781 " fill-opacity="1" fill-rule="nonzero"/></g><g fill="#ffffff" fill-opacity="1"><g transform="translate(186.32812, 405.063163)"><g><path d="M 231.75 0 L 170.796875 0 L 154.96875 -51.3125 L 77.140625 -51.3125 L 60.953125 0 L 1.375 0 L 81.265625 -227.28125 L 152.203125 -227.28125 Z M 88.15625 -91.59375 L 143.9375 -91.59375 L 116.046875 -183.546875 Z M 88.15625 -91.59375 "/></g></g></g><g fill="#ffffff" fill-opacity="1"><g transform="translate(419.461123, 405.063163)"><g><path d="M 103.65625 3.4375 C 79.320312 3.4375 59.0625 -1.320312 42.875 -10.84375 C 26.6875 -20.375 15.492188 -34.320312 9.296875 -52.6875 L 63.703125 -76.109375 C 64.847656 -67.835938 66.96875 -61.234375 70.0625 -56.296875 C 73.164062 -51.367188 77.359375 -47.8125 82.640625 -45.625 C 87.921875 -43.445312 94.117188 -42.359375 101.234375 -42.359375 C 107.671875 -42.359375 113.125 -43.445312 117.59375 -45.625 C 122.070312 -47.8125 125.570312 -50.96875 128.09375 -55.09375 C 130.625 -59.226562 131.890625 -64.164062 131.890625 -69.90625 C 131.890625 -75.875 130.679688 -80.691406 128.265625 -84.359375 C 125.859375 -88.035156 122.414062 -90.675781 117.9375 -92.28125 C 113.46875 -93.894531 108.019531 -94.703125 101.59375 -94.703125 C 98.601562 -94.703125 95.84375 -94.644531 93.3125 -94.53125 C 90.789062 -94.414062 87.925781 -94.128906 84.71875 -93.671875 L 84.71875 -132.234375 C 86.550781 -132.003906 88.382812 -131.832031 90.21875 -131.71875 C 92.0625 -131.601562 94.242188 -131.546875 96.765625 -131.546875 C 107.554688 -131.546875 115.300781 -133.78125 120 -138.25 C 124.707031 -142.726562 127.0625 -149.789062 127.0625 -159.4375 C 127.0625 -167.695312 124.707031 -174.007812 120 -178.375 C 115.300781 -182.738281 108.703125 -184.921875 100.203125 -184.921875 C 91.253906 -184.921875 83.910156 -182.566406 78.171875 -177.859375 C 72.429688 -173.148438 68.757812 -165.171875 67.15625 -153.921875 L 15.15625 -171.828125 C 17.675781 -184.460938 23.066406 -195.140625 31.328125 -203.859375 C 39.597656 -212.585938 49.988281 -219.242188 62.5 -223.828125 C 75.007812 -228.421875 88.84375 -230.71875 104 -230.71875 C 121.445312 -230.71875 136.140625 -228.191406 148.078125 -223.140625 C 160.015625 -218.085938 169.082031 -210.851562 175.28125 -201.4375 C 181.476562 -192.03125 184.578125 -181.015625 184.578125 -168.390625 C 184.578125 -158.515625 183.023438 -150.25 179.921875 -143.59375 C 176.828125 -136.9375 172.925781 -131.539062 168.21875 -127.40625 C 163.507812 -123.28125 158.742188 -120.238281 153.921875 -118.28125 C 149.109375 -116.332031 145.09375 -115.128906 141.875 -114.671875 L 141.875 -113.640625 C 146.007812 -113.640625 150.71875 -112.832031 156 -111.21875 C 161.28125 -109.613281 166.441406 -107.03125 171.484375 -103.46875 C 176.535156 -99.914062 180.722656 -95.039062 184.046875 -88.84375 C 187.378906 -82.644531 189.046875 -74.953125 189.046875 -65.765625 C 189.046875 -51.535156 185.316406 -39.253906 177.859375 -28.921875 C 170.398438 -18.597656 160.242188 -10.625 147.390625 -5 C 134.535156 0.625 119.957031 3.4375 103.65625 3.4375 Z M 103.65625 3.4375 "/></g></g></g></svg>