<svg xmlns="http://www.w3.org/2000/svg" xmlns:xlink="http://www.w3.org/1999/xlink" width="1080" zoomAndPan="magnify" viewBox="0 0 810 809.999993" height="1080" preserveAspectRatio="xMidYMid meet" version="1.0"><defs><g/><clipPath id="98a1c4a31d"><path d="M 139 30.976562 L 681 30.976562 L 681 753 L 139 753 Z M 139 30.976562 " clip-rule="nonzero"/></clipPath></defs><g clip-path="url(#98a1c4a31d)"><path fill="#d22832" d="M 381.933594 738.425781 C 177.035156 441.386719 139.003906 410.902344 139.003906 301.734375 C 139.003906 152.199219 260.226562 30.976562 409.761719 30.976562 C 559.296875 30.976562 680.515625 152.199219 680.515625 301.734375 C 680.515625 410.902344 642.484375 441.386719 437.585938 738.425781 C 424.140625 757.851562 395.378906 757.847656 381.933594 738.425781 Z M 381.933594 738.425781 " fill-opacity="1" fill-rule="nonzero"/></g><g fill="#ffffff" fill-opacity="1"><g transform="translate(177.720698, 405.06328)"><g><path d="M 231.75 0 L 170.796875 0 L 154.96875 -51.3125 L 77.140625 -51.3125 L 60.953125 0 L 1.375 0 L 81.265625 -227.28125 L 152.203125 -227.28125 Z M 88.15625 -91.59375 L 143.9375 -91.59375 L 116.046875 -183.546875 Z M 88.15625 -91.59375 "/></g></g></g><g fill="#ffffff" fill-opacity="1"><g transform="translate(403.966444, 405.06328)"><g><path d="M 225.5625 0 L 154.96875 0 L 112.265625 -72.65625 L 70.9375 0 L 3.78125 0 L 80.921875 -114.328125 L 8.265625 -227.28125 L 78.171875 -227.28125 L 117.078125 -157.71875 L 156.34375 -227.28125 L 220.734375 -227.28125 L 148.078125 -116.046875 Z M 225.5625 0 "/></g></g></g></svg>