<svg xmlns="http://www.w3.org/2000/svg" xmlns:xlink="http://www.w3.org/1999/xlink" width="1080" zoomAndPan="magnify" viewBox="0 0 810 809.999993" height="1080" preserveAspectRatio="xMidYMid meet" version="1.0"><defs><g/><clipPath id="3c3d591b17"><path d="M 139 30.976562 L 681 30.976562 L 681 753 L 139 753 Z M 139 30.976562 " clip-rule="nonzero"/></clipPath></defs><g clip-path="url(#3c3d591b17)"><path fill="#4678c8" d="M 381.933594 738.425781 C 177.035156 441.386719 139.003906 410.902344 139.003906 301.734375 C 139.003906 152.199219 260.226562 30.976562 409.761719 30.976562 C 559.296875 30.976562 680.515625 152.199219 680.515625 301.734375 C 680.515625 410.902344 642.484375 441.386719 437.585938 738.425781 C 424.140625 757.851562 395.378906 757.847656 381.933594 738.425781 Z M 381.933594 738.425781 " fill-opacity="1" fill-rule="nonzero"/></g><g fill="#ffffff" fill-opacity="1"><g transform="translate(184.605462, 405.06328)"><g><path d="M 25.140625 0 L 25.140625 -227.28125 L 135.671875 -227.28125 C 163.679688 -227.050781 184.34375 -221.710938 197.65625 -211.265625 C 210.976562 -200.816406 217.640625 -185.722656 217.640625 -165.984375 C 217.640625 -153.128906 213.847656 -142.050781 206.265625 -132.75 C 198.691406 -123.445312 187.097656 -117.535156 171.484375 -115.015625 L 171.484375 -114.671875 C 188.929688 -112.378906 201.957031 -106.351562 210.5625 -96.59375 C 219.175781 -86.832031 223.484375 -75.066406 223.484375 -61.296875 C 223.484375 -41.785156 216.597656 -26.691406 202.828125 -16.015625 C 189.054688 -5.335938 168.394531 0 140.84375 0 Z M 82.296875 -41.671875 L 130.859375 -41.671875 C 141.648438 -41.671875 149.679688 -43.847656 154.953125 -48.203125 C 160.234375 -52.566406 162.875 -58.882812 162.875 -67.15625 C 162.875 -75.1875 160.234375 -81.320312 154.953125 -85.5625 C 149.679688 -89.8125 141.648438 -91.9375 130.859375 -91.9375 L 82.296875 -91.9375 Z M 82.296875 -134.296875 L 125.34375 -134.296875 C 146.46875 -134.296875 157.03125 -142.5625 157.03125 -159.09375 C 157.03125 -175.625 146.46875 -183.890625 125.34375 -183.890625 L 82.296875 -183.890625 Z M 82.296875 -134.296875 "/></g></g></g><g fill="#ffffff" fill-opacity="1"><g transform="translate(420.14898, 405.06328)"><g><path d="M 20.65625 0 L 20.65625 -37.875 C 40.175781 -50.039062 56.820312 -61.40625 70.59375 -71.96875 C 84.363281 -82.53125 95.550781 -92.515625 104.15625 -101.921875 C 112.769531 -111.335938 119.144531 -120.289062 123.28125 -128.78125 C 127.414062 -137.28125 129.484375 -145.546875 129.484375 -153.578125 C 129.484375 -162.304688 126.898438 -169.597656 121.734375 -175.453125 C 116.566406 -181.304688 108.929688 -184.234375 98.828125 -184.234375 C 88.035156 -184.234375 79.65625 -180.269531 73.6875 -172.34375 C 67.71875 -164.425781 64.503906 -152.894531 64.046875 -137.75 L 13.4375 -153.234375 C 13.894531 -170.222656 17.96875 -184.457031 25.65625 -195.9375 C 33.34375 -207.414062 43.84375 -216.082031 57.15625 -221.9375 C 70.476562 -227.789062 85.632812 -230.71875 102.625 -230.71875 C 117.539062 -230.71875 130.453125 -228.59375 141.359375 -224.34375 C 152.265625 -220.101562 161.160156 -214.476562 168.046875 -207.46875 C 174.929688 -200.46875 180.035156 -192.660156 183.359375 -184.046875 C 186.691406 -175.441406 188.359375 -166.664062 188.359375 -157.71875 C 188.359375 -143.019531 184.570312 -129.300781 177 -116.5625 C 169.425781 -103.820312 158.460938 -91.539062 144.109375 -79.71875 C 129.765625 -67.894531 112.375 -56.015625 91.9375 -44.078125 L 91.9375 -43.734375 C 95.84375 -43.960938 100.4375 -44.191406 105.71875 -44.421875 C 111 -44.648438 116.507812 -44.820312 122.25 -44.9375 C 127.988281 -45.050781 133.15625 -45.109375 137.75 -45.109375 L 191.125 -45.109375 L 191.125 0 Z M 20.65625 0 "/></g></g></g></svg>