<svg xmlns="http://www.w3.org/2000/svg" xmlns:xlink="http://www.w3.org/1999/xlink" width="1080" zoomAndPan="magnify" viewBox="0 0 810 809.999993" height="1080" preserveAspectRatio="xMidYMid meet" version="1.0"><defs><g/><clipPath id="01736cf890"><path d="M 139 30.976562 L 681 30.976562 L 681 753 L 139 753 Z M 139 30.976562 " clip-rule="nonzero"/></clipPath></defs><g clip-path="url(#01736cf890)"><path fill="#4678c8" d="M 381.933594 738.425781 C 177.035156 441.386719 139.003906 410.902344 139.003906 301.734375 C 139.003906 152.199219 260.226562 30.976562 409.761719 30.976562 C 559.296875 30.976562 680.515625 152.199219 680.515625 301.734375 C 680.515625 410.902344 642.484375 441.386719 437.585938 738.425781 C 424.140625 757.851562 395.378906 757.847656 381.933594 738.425781 Z M 381.933594 738.425781 " fill-opacity="1" fill-rule="nonzero"/></g><g fill="#ffffff" fill-opacity="1"><g transform="translate(181.16015, 405.063163)"><g><path d="M 25.140625 0 L 25.140625 -227.28125 L 135.671875 -227.28125 C 163.679688 -227.050781 184.34375 -221.710938 197.65625 -211.265625 C 210.976562 -200.816406 217.640625 -185.722656 217.640625 -165.984375 C 217.640625 -153.128906 213.847656 -142.050781 206.265625 -132.75 C 198.691406 -123.445312 187.097656 -117.535156 171.484375 -115.015625 L 171.484375 -114.671875 C 188.929688 -112.378906 201.957031 -106.351562 210.5625 -96.59375 C 219.175781 -86.832031 223.484375 -75.066406 223.484375 -61.296875 C 223.484375 -41.785156 216.597656 -26.691406 202.828125 -16.015625 C 189.054688 -5.335938 168.394531 0 140.84375 0 Z M 82.296875 -41.671875 L 130.859375 -41.671875 C 141.648438 -41.671875 149.679688 -43.847656 154.953125 -48.203125 C 160.234375 -52.566406 162.875 -58.882812 162.875 -67.15625 C 162.875 -75.1875 160.234375 -81.320312 154.953125 -85.5625 C 149.679688 -89.8125 141.648438 -91.9375 130.859375 -91.9375 L 82.296875 -91.9375 Z M 82.296875 -134.296875 L 125.34375 -134.296875 C 146.46875 -134.296875 157.03125 -142.5625 157.03125 -159.09375 C 157.03125 -175.625 146.46875 -183.890625 125.34375 -183.890625 L 82.296875 -183.890625 Z M 82.296875 -134.296875 "/></g></g></g><g fill="#ffffff" fill-opacity="1"><g transform="translate(416.703668, 405.063163)"><g><path d="M 117.765625 -230.71875 C 129.929688 -230.71875 141.238281 -229.109375 151.6875 -225.890625 C 162.132812 -222.679688 171.257812 -217.40625 179.0625 -210.0625 C 186.875 -202.71875 192.726562 -192.84375 196.625 -180.4375 L 148.421875 -157.71875 C 146.117188 -165.75 142.15625 -172.117188 136.53125 -176.828125 C 130.914062 -181.535156 123.398438 -183.890625 113.984375 -183.890625 C 107.554688 -183.890625 101.644531 -182.335938 96.25 -179.234375 C 90.851562 -176.140625 86.203125 -171.722656 82.296875 -165.984375 C 78.398438 -160.242188 75.472656 -153.238281 73.515625 -144.96875 C 71.566406 -136.707031 70.59375 -127.410156 70.59375 -117.078125 C 70.59375 -116.390625 70.59375 -115.644531 70.59375 -114.84375 C 70.59375 -114.039062 70.59375 -112.953125 70.59375 -111.578125 L 71.28125 -109.5 C 74.039062 -116.394531 78.347656 -122.191406 84.203125 -126.890625 C 90.054688 -131.597656 96.769531 -135.210938 104.34375 -137.734375 C 111.914062 -140.265625 119.488281 -141.53125 127.0625 -141.53125 C 141.070312 -141.53125 153.585938 -138.773438 164.609375 -133.265625 C 175.628906 -127.753906 184.296875 -119.890625 190.609375 -109.671875 C 196.921875 -99.460938 200.078125 -87.125 200.078125 -72.65625 C 200.078125 -57.050781 196.515625 -43.566406 189.390625 -32.203125 C 182.273438 -20.835938 172.40625 -12.054688 159.78125 -5.859375 C 147.15625 0.335938 132.117188 3.4375 114.671875 3.4375 C 95.160156 3.4375 78 -0.863281 63.1875 -9.46875 C 48.382812 -18.082031 36.90625 -30.9375 28.75 -48.03125 C 20.601562 -65.132812 16.53125 -86.316406 16.53125 -111.578125 C 16.53125 -138.660156 21.003906 -160.925781 29.953125 -178.375 C 38.910156 -195.820312 51.019531 -208.90625 66.28125 -217.625 C 81.550781 -226.351562 98.710938 -230.71875 117.765625 -230.71875 Z M 113.640625 -101.59375 C 107.671875 -101.59375 102.21875 -100.382812 97.28125 -97.96875 C 92.34375 -95.5625 88.4375 -92.0625 85.5625 -87.46875 C 82.695312 -82.875 81.265625 -77.476562 81.265625 -71.28125 C 81.265625 -65.3125 82.753906 -60.03125 85.734375 -55.4375 C 88.722656 -50.84375 92.628906 -47.285156 97.453125 -44.765625 C 102.273438 -42.242188 107.671875 -40.984375 113.640625 -40.984375 C 123.972656 -40.984375 131.953125 -43.617188 137.578125 -48.890625 C 143.203125 -54.171875 146.015625 -61.632812 146.015625 -71.28125 C 146.015625 -77.707031 144.75 -83.160156 142.21875 -87.640625 C 139.695312 -92.117188 136.082031 -95.5625 131.375 -97.96875 C 126.664062 -100.382812 120.753906 -101.59375 113.640625 -101.59375 Z M 113.640625 -101.59375 "/></g></g></g></svg>