<svg xmlns="http://www.w3.org/2000/svg" xmlns:xlink="http://www.w3.org/1999/xlink" width="1080" zoomAndPan="magnify" viewBox="0 0 810 809.999993" height="1080" preserveAspectRatio="xMidYMid meet" version="1.0"><defs><g/><clipPath id="360f75489d"><path d="M 139 30.976562 L 681 30.976562 L 681 753 L 139 753 Z M 139 30.976562 " clip-rule="nonzero"/></clipPath></defs><g clip-path="url(#360f75489d)"><path fill="#003255" d="M 381.933594 738.425781 C 177.035156 441.386719 139.003906 410.902344 139.003906 301.734375 C 139.003906 152.199219 260.226562 30.976562 409.761719 30.976562 C 559.296875 30.976562 680.515625 152.199219 680.515625 301.734375 C 680.515625 410.902344 642.484375 441.386719 437.585938 738.425781 C 424.140625 757.851562 395.378906 757.847656 381.933594 738.425781 Z M 381.933594 738.425781 " fill-opacity="1" fill-rule="nonzero"/></g><g fill="#ffffff" fill-opacity="1"><g transform="translate(287.226551, 405.063163)"><g><path d="M 25.140625 0 L 25.140625 -227.28125 L 135.671875 -227.28125 C 163.679688 -227.050781 184.34375 -221.710938 197.65625 -211.265625 C 210.976562 -200.816406 217.640625 -185.722656 217.640625 -165.984375 C 217.640625 -153.128906 213.847656 -142.050781 206.265625 -132.75 C 198.691406 -123.445312 187.097656 -117.535156 171.484375 -115.015625 L 171.484375 -114.671875 C 188.929688 -112.378906 201.957031 -106.351562 210.5625 -96.59375 C 219.175781 -86.832031 223.484375 -75.066406 223.484375 -61.296875 C 223.484375 -41.785156 216.597656 -26.691406 202.828125 -16.015625 C 189.054688 -5.335938 168.394531 0 140.84375 0 Z M 82.296875 -41.671875 L 130.859375 -41.671875 C 141.648438 -41.671875 149.679688 -43.847656 154.953125 -48.203125 C 160.234375 -52.566406 162.875 -58.882812 162.875 -67.15625 C 162.875 -75.1875 160.234375 -81.320312 154.953125 -85.5625 C 149.679688 -89.8125 141.648438 -91.9375 130.859375 -91.9375 L 82.296875 -91.9375 Z M 82.296875 -134.296875 L 125.34375 -134.296875 C 146.46875 -134.296875 157.03125 -142.5625 157.03125 -159.09375 C 157.03125 -175.625 146.46875 -183.890625 125.34375 -183.890625 L 82.296875 -183.890625 Z M 82.296875 -134.296875 "/></g></g></g></svg>