<svg xmlns="http://www.w3.org/2000/svg" xmlns:xlink="http://www.w3.org/1999/xlink" width="1080" zoomAndPan="magnify" viewBox="0 0 810 809.999993" height="1080" preserveAspectRatio="xMidYMid meet" version="1.0"><defs><g/><clipPath id="35de626290"><path d="M 139 30.976562 L 681 30.976562 L 681 753 L 139 753 Z M 139 30.976562 " clip-rule="nonzero"/></clipPath></defs><g clip-path="url(#35de626290)"><path fill="#ffb91e" d="M 381.933594 738.425781 C 177.035156 441.386719 139.003906 410.902344 139.003906 301.734375 C 139.003906 152.199219 260.226562 30.976562 409.761719 30.976562 C 559.296875 30.976562 680.515625 152.199219 680.515625 301.734375 C 680.515625 410.902344 642.484375 441.386719 437.585938 738.425781 C 424.140625 757.851562 395.378906 757.847656 381.933594 738.425781 Z M 381.933594 738.425781 " fill-opacity="1" fill-rule="nonzero"/></g><g fill="#ffffff" fill-opacity="1"><g transform="translate(185.636713, 405.06328)"><g><path d="M 226.59375 -65.078125 C 222.226562 -49.242188 215.222656 -36.21875 205.578125 -26 C 195.941406 -15.78125 184.460938 -8.316406 171.140625 -3.609375 C 157.828125 1.085938 143.132812 3.4375 127.0625 3.4375 C 104.101562 3.4375 84.242188 -1.207031 67.484375 -10.5 C 50.734375 -19.800781 37.878906 -33.175781 28.921875 -50.625 C 19.972656 -68.070312 15.5 -89.078125 15.5 -113.640625 C 15.5 -138.203125 19.972656 -159.207031 28.921875 -176.65625 C 37.878906 -194.101562 50.734375 -207.472656 67.484375 -216.765625 C 84.242188 -226.066406 103.988281 -230.71875 126.71875 -230.71875 C 142.5625 -230.71875 157.140625 -228.476562 170.453125 -224 C 183.773438 -219.53125 195.023438 -212.703125 204.203125 -203.515625 C 213.390625 -194.328125 219.929688 -182.503906 223.828125 -168.046875 L 171.828125 -147.046875 C 168.617188 -161.273438 163.394531 -171.03125 156.15625 -176.3125 C 148.925781 -181.59375 139.804688 -184.234375 128.796875 -184.234375 C 118.003906 -184.234375 108.644531 -181.59375 100.71875 -176.3125 C 92.800781 -171.03125 86.71875 -163.164062 82.46875 -152.71875 C 78.226562 -142.28125 76.109375 -129.253906 76.109375 -113.640625 C 76.109375 -98.253906 78.054688 -85.28125 81.953125 -74.71875 C 85.859375 -64.164062 91.769531 -56.25 99.6875 -50.96875 C 107.613281 -45.6875 117.429688 -43.046875 129.140625 -43.046875 C 140.148438 -43.046875 149.5 -46.085938 157.1875 -52.171875 C 164.882812 -58.253906 170.113281 -67.609375 172.875 -80.234375 Z M 226.59375 -65.078125 "/></g></g></g><g fill="#ffffff" fill-opacity="1"><g transform="translate(420.147152, 405.06328)"><g><path d="M 103.65625 3.4375 C 79.320312 3.4375 59.0625 -1.320312 42.875 -10.84375 C 26.6875 -20.375 15.492188 -34.320312 9.296875 -52.6875 L 63.703125 -76.109375 C 64.847656 -67.835938 66.96875 -61.234375 70.0625 -56.296875 C 73.164062 -51.367188 77.359375 -47.8125 82.640625 -45.625 C 87.921875 -43.445312 94.117188 -42.359375 101.234375 -42.359375 C 107.671875 -42.359375 113.125 -43.445312 117.59375 -45.625 C 122.070312 -47.8125 125.570312 -50.96875 128.09375 -55.09375 C 130.625 -59.226562 131.890625 -64.164062 131.890625 -69.90625 C 131.890625 -75.875 130.679688 -80.691406 128.265625 -84.359375 C 125.859375 -88.035156 122.414062 -90.675781 117.9375 -92.28125 C 113.46875 -93.894531 108.019531 -94.703125 101.59375 -94.703125 C 98.601562 -94.703125 95.84375 -94.644531 93.3125 -94.53125 C 90.789062 -94.414062 87.925781 -94.128906 84.71875 -93.671875 L 84.71875 -132.234375 C 86.550781 -132.003906 88.382812 -131.832031 90.21875 -131.71875 C 92.0625 -131.601562 94.242188 -131.546875 96.765625 -131.546875 C 107.554688 -131.546875 115.300781 -133.78125 120 -138.25 C 124.707031 -142.726562 127.0625 -149.789062 127.0625 -159.4375 C 127.0625 -167.695312 124.707031 -174.007812 120 -178.375 C 115.300781 -182.738281 108.703125 -184.921875 100.203125 -184.921875 C 91.253906 -184.921875 83.910156 -182.566406 78.171875 -177.859375 C 72.429688 -173.148438 68.757812 -165.171875 67.15625 -153.921875 L 15.15625 -171.828125 C 17.675781 -184.460938 23.066406 -195.140625 31.328125 -203.859375 C 39.597656 -212.585938 49.988281 -219.242188 62.5 -223.828125 C 75.007812 -228.421875 88.84375 -230.71875 104 -230.71875 C 121.445312 -230.71875 136.140625 -228.191406 148.078125 -223.140625 C 160.015625 -218.085938 169.082031 -210.851562 175.28125 -201.4375 C 181.476562 -192.03125 184.578125 -181.015625 184.578125 -168.390625 C 184.578125 -158.515625 183.023438 -150.25 179.921875 -143.59375 C 176.828125 -136.9375 172.925781 -131.539062 168.21875 -127.40625 C 163.507812 -123.28125 158.742188 -120.238281 153.921875 -118.28125 C 149.109375 -116.332031 145.09375 -115.128906 141.875 -114.671875 L 141.875 -113.640625 C 146.007812 -113.640625 150.71875 -112.832031 156 -111.21875 C 161.28125 -109.613281 166.441406 -107.03125 171.484375 -103.46875 C 176.535156 -99.914062 180.722656 -95.039062 184.046875 -88.84375 C 187.378906 -82.644531 189.046875 -74.953125 189.046875 -65.765625 C 189.046875 -51.535156 185.316406 -39.253906 177.859375 -28.921875 C 170.398438 -18.597656 160.242188 -10.625 147.390625 -5 C 134.535156 0.625 119.957031 3.4375 103.65625 3.4375 Z M 103.65625 3.4375 "/></g></g></g></svg>