<svg xmlns="http://www.w3.org/2000/svg" xmlns:xlink="http://www.w3.org/1999/xlink" width="1080" zoomAndPan="magnify" viewBox="0 0 810 809.999993" height="1080" preserveAspectRatio="xMidYMid meet" version="1.0"><defs><g/><clipPath id="8d03d1b338"><path d="M 139 30.976562 L 681 30.976562 L 681 753 L 139 753 Z M 139 30.976562 " clip-rule="nonzero"/></clipPath></defs><g clip-path="url(#8d03d1b338)"><path fill="#ffb91e" d="M 381.933594 738.425781 C 177.035156 441.386719 139.003906 410.902344 139.003906 301.734375 C 139.003906 152.199219 260.226562 30.976562 409.761719 30.976562 C 559.296875 30.976562 680.515625 152.199219 680.515625 301.734375 C 680.515625 410.902344 642.484375 441.386719 437.585938 738.425781 C 424.140625 757.851562 395.378906 757.847656 381.933594 738.425781 Z M 381.933594 738.425781 " fill-opacity="1" fill-rule="nonzero"/></g><g fill="#ffffff" fill-opacity="1"><g transform="translate(176.513666, 405.063163)"><g><path d="M 226.59375 -65.078125 C 222.226562 -49.242188 215.222656 -36.21875 205.578125 -26 C 195.941406 -15.78125 184.460938 -8.316406 171.140625 -3.609375 C 157.828125 1.085938 143.132812 3.4375 127.0625 3.4375 C 104.101562 3.4375 84.242188 -1.207031 67.484375 -10.5 C 50.734375 -19.800781 37.878906 -33.175781 28.921875 -50.625 C 19.972656 -68.070312 15.5 -89.078125 15.5 -113.640625 C 15.5 -138.203125 19.972656 -159.207031 28.921875 -176.65625 C 37.878906 -194.101562 50.734375 -207.472656 67.484375 -216.765625 C 84.242188 -226.066406 103.988281 -230.71875 126.71875 -230.71875 C 142.5625 -230.71875 157.140625 -228.476562 170.453125 -224 C 183.773438 -219.53125 195.023438 -212.703125 204.203125 -203.515625 C 213.390625 -194.328125 219.929688 -182.503906 223.828125 -168.046875 L 171.828125 -147.046875 C 168.617188 -161.273438 163.394531 -171.03125 156.15625 -176.3125 C 148.925781 -181.59375 139.804688 -184.234375 128.796875 -184.234375 C 118.003906 -184.234375 108.644531 -181.59375 100.71875 -176.3125 C 92.800781 -171.03125 86.71875 -163.164062 82.46875 -152.71875 C 78.226562 -142.28125 76.109375 -129.253906 76.109375 -113.640625 C 76.109375 -98.253906 78.054688 -85.28125 81.953125 -74.71875 C 85.859375 -64.164062 91.769531 -56.25 99.6875 -50.96875 C 107.613281 -45.6875 117.429688 -43.046875 129.140625 -43.046875 C 140.148438 -43.046875 149.5 -46.085938 157.1875 -52.171875 C 164.882812 -58.253906 170.113281 -67.609375 172.875 -80.234375 Z M 226.59375 -65.078125 "/></g></g></g><g fill="#ffffff" fill-opacity="1"><g transform="translate(411.024104, 405.063163)"><g><path d="M 125.6875 0 L 125.6875 -49.9375 L 14.8125 -49.9375 L 14.8125 -87.125 C 16.875 -90.789062 19.566406 -95.265625 22.890625 -100.546875 C 26.222656 -105.828125 30.1875 -111.910156 34.78125 -118.796875 L 108.8125 -227.28125 L 178.03125 -227.28125 L 178.03125 -90.5625 L 212.8125 -90.5625 L 212.8125 -49.9375 L 178.03125 -49.9375 L 178.03125 0 Z M 62.328125 -90.5625 L 126.375 -90.5625 L 126.375 -159.4375 C 126.375 -164.03125 126.488281 -168.796875 126.71875 -173.734375 C 126.945312 -178.671875 127.175781 -183.660156 127.40625 -188.703125 L 126.71875 -188.703125 C 124.425781 -183.890625 121.726562 -178.898438 118.625 -173.734375 C 115.53125 -168.566406 112.601562 -163.914062 109.84375 -159.78125 L 69.5625 -100.890625 C 68.414062 -99.054688 67.265625 -97.335938 66.109375 -95.734375 C 64.960938 -94.128906 63.703125 -92.40625 62.328125 -90.5625 Z M 62.328125 -90.5625 "/></g></g></g></svg>