<svg xmlns="http://www.w3.org/2000/svg" xmlns:xlink="http://www.w3.org/1999/xlink" width="1080" zoomAndPan="magnify" viewBox="0 0 810 809.999993" height="1080" preserveAspectRatio="xMidYMid meet" version="1.0"><defs><g/><clipPath id="6fd59cc190"><path d="M 139 30.976562 L 681 30.976562 L 681 753 L 139 753 Z M 139 30.976562 " clip-rule="nonzero"/></clipPath></defs><g clip-path="url(#6fd59cc190)"><path fill="#ffb91e" d="M 381.933594 738.425781 C 177.035156 441.386719 139.003906 410.902344 139.003906 301.734375 C 139.003906 152.199219 260.226562 30.976562 409.761719 30.976562 C 559.296875 30.976562 680.515625 152.199219 680.515625 301.734375 C 680.515625 410.902344 642.484375 441.386719 437.585938 738.425781 C 424.140625 757.851562 395.378906 757.847656 381.933594 738.425781 Z M 381.933594 738.425781 " fill-opacity="1" fill-rule="nonzero"/></g><g fill="#ffffff" fill-opacity="1"><g transform="translate(187.359368, 405.06328)"><g><path d="M 226.59375 -65.078125 C 222.226562 -49.242188 215.222656 -36.21875 205.578125 -26 C 195.941406 -15.78125 184.460938 -8.316406 171.140625 -3.609375 C 157.828125 1.085938 143.132812 3.4375 127.0625 3.4375 C 104.101562 3.4375 84.242188 -1.207031 67.484375 -10.5 C 50.734375 -19.800781 37.878906 -33.175781 28.921875 -50.625 C 19.972656 -68.070312 15.5 -89.078125 15.5 -113.640625 C 15.5 -138.203125 19.972656 -159.207031 28.921875 -176.65625 C 37.878906 -194.101562 50.734375 -207.472656 67.484375 -216.765625 C 84.242188 -226.066406 103.988281 -230.71875 126.71875 -230.71875 C 142.5625 -230.71875 157.140625 -228.476562 170.453125 -224 C 183.773438 -219.53125 195.023438 -212.703125 204.203125 -203.515625 C 213.390625 -194.328125 219.929688 -182.503906 223.828125 -168.046875 L 171.828125 -147.046875 C 168.617188 -161.273438 163.394531 -171.03125 156.15625 -176.3125 C 148.925781 -181.59375 139.804688 -184.234375 128.796875 -184.234375 C 118.003906 -184.234375 108.644531 -181.59375 100.71875 -176.3125 C 92.800781 -171.03125 86.71875 -163.164062 82.46875 -152.71875 C 78.226562 -142.28125 76.109375 -129.253906 76.109375 -113.640625 C 76.109375 -98.253906 78.054688 -85.28125 81.953125 -74.71875 C 85.859375 -64.164062 91.769531 -56.25 99.6875 -50.96875 C 107.613281 -45.6875 117.429688 -43.046875 129.140625 -43.046875 C 140.148438 -43.046875 149.5 -46.085938 157.1875 -52.171875 C 164.882812 -58.253906 170.113281 -67.609375 172.875 -80.234375 Z M 226.59375 -65.078125 "/></g></g></g><g fill="#ffffff" fill-opacity="1"><g transform="translate(421.869807, 405.06328)"><g><path d="M 98.484375 3.4375 C 78.742188 3.4375 61.582031 -0.40625 47 -8.09375 C 32.425781 -15.78125 20.203125 -28.347656 10.328125 -45.796875 L 62.328125 -71.625 C 64.847656 -62.445312 68.921875 -55.101562 74.546875 -49.59375 C 80.171875 -44.082031 88.609375 -41.328125 99.859375 -41.328125 C 106.984375 -41.328125 113.066406 -42.585938 118.109375 -45.109375 C 123.160156 -47.640625 127.117188 -51.367188 129.984375 -56.296875 C 132.859375 -61.234375 134.296875 -67.257812 134.296875 -74.375 C 134.296875 -81.269531 132.972656 -87.007812 130.328125 -91.59375 C 127.691406 -96.1875 123.847656 -99.6875 118.796875 -102.09375 C 113.753906 -104.507812 107.441406 -105.71875 99.859375 -105.71875 C 94.347656 -105.71875 89.410156 -105.203125 85.046875 -104.171875 C 80.691406 -103.140625 76.734375 -101.644531 73.171875 -99.6875 C 69.617188 -97.738281 66.347656 -95.269531 63.359375 -92.28125 L 18.59375 -100.546875 L 33.0625 -227.28125 L 176.3125 -227.28125 L 176.3125 -181.484375 L 76.109375 -181.484375 L 70.25 -136.015625 L 69.21875 -130.515625 L 69.5625 -130.515625 C 74.15625 -135.796875 80.582031 -139.8125 88.84375 -142.5625 C 97.101562 -145.320312 106.285156 -146.703125 116.390625 -146.703125 C 131.316406 -146.703125 144.054688 -143.71875 154.609375 -137.75 C 165.171875 -131.78125 173.320312 -123.628906 179.0625 -113.296875 C 184.800781 -102.960938 187.671875 -91.140625 187.671875 -77.828125 C 187.671875 -63.816406 185.316406 -51.703125 180.609375 -41.484375 C 175.910156 -31.273438 169.367188 -22.84375 160.984375 -16.1875 C 152.609375 -9.53125 143.082031 -4.59375 132.40625 -1.375 C 121.726562 1.832031 110.421875 3.4375 98.484375 3.4375 Z M 98.484375 3.4375 "/></g></g></g></svg>