<svg xmlns="http://www.w3.org/2000/svg" xmlns:xlink="http://www.w3.org/1999/xlink" width="1080" zoomAndPan="magnify" viewBox="0 0 810 809.999993" height="1080" preserveAspectRatio="xMidYMid meet" version="1.0"><defs><g/><clipPath id="1f27a672f3"><path d="M 139 30.976562 L 681 30.976562 L 681 753 L 139 753 Z M 139 30.976562 " clip-rule="nonzero"/></clipPath></defs><g clip-path="url(#1f27a672f3)"><path fill="#ffb91e" d="M 381.933594 738.425781 C 177.035156 441.386719 139.003906 410.902344 139.003906 301.734375 C 139.003906 152.199219 260.226562 30.976562 409.761719 30.976562 C 559.296875 30.976562 680.515625 152.199219 680.515625 301.734375 C 680.515625 410.902344 642.484375 441.386719 437.585938 738.425781 C 424.140625 757.851562 395.378906 757.847656 381.933594 738.425781 Z M 381.933594 738.425781 " fill-opacity="1" fill-rule="nonzero"/></g><g fill="#ffffff" fill-opacity="1"><g transform="translate(181.675775, 405.06328)"><g><path d="M 226.59375 -65.078125 C 222.226562 -49.242188 215.222656 -36.21875 205.578125 -26 C 195.941406 -15.78125 184.460938 -8.316406 171.140625 -3.609375 C 157.828125 1.085938 143.132812 3.4375 127.0625 3.4375 C 104.101562 3.4375 84.242188 -1.207031 67.484375 -10.5 C 50.734375 -19.800781 37.878906 -33.175781 28.921875 -50.625 C 19.972656 -68.070312 15.5 -89.078125 15.5 -113.640625 C 15.5 -138.203125 19.972656 -159.207031 28.921875 -176.65625 C 37.878906 -194.101562 50.734375 -207.472656 67.484375 -216.765625 C 84.242188 -226.066406 103.988281 -230.71875 126.71875 -230.71875 C 142.5625 -230.71875 157.140625 -228.476562 170.453125 -224 C 183.773438 -219.53125 195.023438 -212.703125 204.203125 -203.515625 C 213.390625 -194.328125 219.929688 -182.503906 223.828125 -168.046875 L 171.828125 -147.046875 C 168.617188 -161.273438 163.394531 -171.03125 156.15625 -176.3125 C 148.925781 -181.59375 139.804688 -184.234375 128.796875 -184.234375 C 118.003906 -184.234375 108.644531 -181.59375 100.71875 -176.3125 C 92.800781 -171.03125 86.71875 -163.164062 82.46875 -152.71875 C 78.226562 -142.28125 76.109375 -129.253906 76.109375 -113.640625 C 76.109375 -98.253906 78.054688 -85.28125 81.953125 -74.71875 C 85.859375 -64.164062 91.769531 -56.25 99.6875 -50.96875 C 107.613281 -45.6875 117.429688 -43.046875 129.140625 -43.046875 C 140.148438 -43.046875 149.5 -46.085938 157.1875 -52.171875 C 164.882812 -58.253906 170.113281 -67.609375 172.875 -80.234375 Z M 226.59375 -65.078125 "/></g></g></g><g fill="#ffffff" fill-opacity="1"><g transform="translate(416.186213, 405.06328)"><g><path d="M 117.765625 -230.71875 C 129.929688 -230.71875 141.238281 -229.109375 151.6875 -225.890625 C 162.132812 -222.679688 171.257812 -217.40625 179.0625 -210.0625 C 186.875 -202.71875 192.726562 -192.84375 196.625 -180.4375 L 148.421875 -157.71875 C 146.117188 -165.75 142.15625 -172.117188 136.53125 -176.828125 C 130.914062 -181.535156 123.398438 -183.890625 113.984375 -183.890625 C 107.554688 -183.890625 101.644531 -182.335938 96.25 -179.234375 C 90.851562 -176.140625 86.203125 -171.722656 82.296875 -165.984375 C 78.398438 -160.242188 75.472656 -153.238281 73.515625 -144.96875 C 71.566406 -136.707031 70.59375 -127.410156 70.59375 -117.078125 C 70.59375 -116.390625 70.59375 -115.644531 70.59375 -114.84375 C 70.59375 -114.039062 70.59375 -112.953125 70.59375 -111.578125 L 71.28125 -109.5 C 74.039062 -116.394531 78.347656 -122.191406 84.203125 -126.890625 C 90.054688 -131.597656 96.769531 -135.210938 104.34375 -137.734375 C 111.914062 -140.265625 119.488281 -141.53125 127.0625 -141.53125 C 141.070312 -141.53125 153.585938 -138.773438 164.609375 -133.265625 C 175.628906 -127.753906 184.296875 -119.890625 190.609375 -109.671875 C 196.921875 -99.460938 200.078125 -87.125 200.078125 -72.65625 C 200.078125 -57.050781 196.515625 -43.566406 189.390625 -32.203125 C 182.273438 -20.835938 172.40625 -12.054688 159.78125 -5.859375 C 147.15625 0.335938 132.117188 3.4375 114.671875 3.4375 C 95.160156 3.4375 78 -0.863281 63.1875 -9.46875 C 48.382812 -18.082031 36.90625 -30.9375 28.75 -48.03125 C 20.601562 -65.132812 16.53125 -86.316406 16.53125 -111.578125 C 16.53125 -138.660156 21.003906 -160.925781 29.953125 -178.375 C 38.910156 -195.820312 51.019531 -208.90625 66.28125 -217.625 C 81.550781 -226.351562 98.710938 -230.71875 117.765625 -230.71875 Z M 113.640625 -101.59375 C 107.671875 -101.59375 102.21875 -100.382812 97.28125 -97.96875 C 92.34375 -95.5625 88.4375 -92.0625 85.5625 -87.46875 C 82.695312 -82.875 81.265625 -77.476562 81.265625 -71.28125 C 81.265625 -65.3125 82.753906 -60.03125 85.734375 -55.4375 C 88.722656 -50.84375 92.628906 -47.285156 97.453125 -44.765625 C 102.273438 -42.242188 107.671875 -40.984375 113.640625 -40.984375 C 123.972656 -40.984375 131.953125 -43.617188 137.578125 -48.890625 C 143.203125 -54.171875 146.015625 -61.632812 146.015625 -71.28125 C 146.015625 -77.707031 144.75 -83.160156 142.21875 -87.640625 C 139.695312 -92.117188 136.082031 -95.5625 131.375 -97.96875 C 126.664062 -100.382812 120.753906 -101.59375 113.640625 -101.59375 Z M 113.640625 -101.59375 "/></g></g></g></svg>