<svg xmlns="http://www.w3.org/2000/svg" xmlns:xlink="http://www.w3.org/1999/xlink" width="1080" zoomAndPan="magnify" viewBox="0 0 810 809.999993" height="1080" preserveAspectRatio="xMidYMid meet" version="1.0"><defs><g/><clipPath id="98daa56a2e"><path d="M 139 30.976562 L 681 30.976562 L 681 753 L 139 753 Z M 139 30.976562 " clip-rule="nonzero"/></clipPath></defs><g clip-path="url(#98daa56a2e)"><path fill="#7dc855" d="M 381.933594 738.425781 C 177.035156 441.386719 139.003906 410.902344 139.003906 301.734375 C 139.003906 152.199219 260.226562 30.976562 409.761719 30.976562 C 559.296875 30.976562 680.515625 152.199219 680.515625 301.734375 C 680.515625 410.902344 642.484375 441.386719 437.585938 738.425781 C 424.140625 757.851562 395.378906 757.847656 381.933594 738.425781 Z M 381.933594 738.425781 " fill-opacity="1" fill-rule="nonzero"/></g><g fill="#ffffff" fill-opacity="1"><g transform="translate(178.751947, 405.063163)"><g><path d="M 121.5625 -227.28125 C 157.144531 -227.28125 184.40625 -217.40625 203.34375 -197.65625 C 222.28125 -177.914062 231.75 -149.910156 231.75 -113.640625 C 231.75 -77.367188 222.28125 -49.359375 203.34375 -29.609375 C 184.40625 -9.867188 157.144531 0 121.5625 0 L 25.140625 0 L 25.140625 -227.28125 Z M 115.703125 -44.765625 C 134.984375 -44.765625 149.039062 -50.5625 157.875 -62.15625 C 166.71875 -73.75 171.140625 -90.910156 171.140625 -113.640625 C 171.140625 -136.367188 166.71875 -153.53125 157.875 -165.125 C 149.039062 -176.71875 134.984375 -182.515625 115.703125 -182.515625 L 84.375 -182.515625 L 84.375 -44.765625 Z M 115.703125 -44.765625 "/></g></g></g><g fill="#ffffff" fill-opacity="1"><g transform="translate(426.003782, 405.063163)"><g><path d="M 20.65625 0 L 20.65625 -37.875 C 40.175781 -50.039062 56.820312 -61.40625 70.59375 -71.96875 C 84.363281 -82.53125 95.550781 -92.515625 104.15625 -101.921875 C 112.769531 -111.335938 119.144531 -120.289062 123.28125 -128.78125 C 127.414062 -137.28125 129.484375 -145.546875 129.484375 -153.578125 C 129.484375 -162.304688 126.898438 -169.597656 121.734375 -175.453125 C 116.566406 -181.304688 108.929688 -184.234375 98.828125 -184.234375 C 88.035156 -184.234375 79.65625 -180.269531 73.6875 -172.34375 C 67.71875 -164.425781 64.503906 -152.894531 64.046875 -137.75 L 13.4375 -153.234375 C 13.894531 -170.222656 17.96875 -184.457031 25.65625 -195.9375 C 33.34375 -207.414062 43.84375 -216.082031 57.15625 -221.9375 C 70.476562 -227.789062 85.632812 -230.71875 102.625 -230.71875 C 117.539062 -230.71875 130.453125 -228.59375 141.359375 -224.34375 C 152.265625 -220.101562 161.160156 -214.476562 168.046875 -207.46875 C 174.929688 -200.46875 180.035156 -192.660156 183.359375 -184.046875 C 186.691406 -175.441406 188.359375 -166.664062 188.359375 -157.71875 C 188.359375 -143.019531 184.570312 -129.300781 177 -116.5625 C 169.425781 -103.820312 158.460938 -91.539062 144.109375 -79.71875 C 129.765625 -67.894531 112.375 -56.015625 91.9375 -44.078125 L 91.9375 -43.734375 C 95.84375 -43.960938 100.4375 -44.191406 105.71875 -44.421875 C 111 -44.648438 116.507812 -44.820312 122.25 -44.9375 C 127.988281 -45.050781 133.15625 -45.109375 137.75 -45.109375 L 191.125 -45.109375 L 191.125 0 Z M 20.65625 0 "/></g></g></g></svg>