<svg xmlns="http://www.w3.org/2000/svg" xmlns:xlink="http://www.w3.org/1999/xlink" width="1080" zoomAndPan="magnify" viewBox="0 0 810 809.999993" height="1080" preserveAspectRatio="xMidYMid meet" version="1.0"><defs><g/><clipPath id="ad05aa8d85"><path d="M 139 30.976562 L 681 30.976562 L 681 753 L 139 753 Z M 139 30.976562 " clip-rule="nonzero"/></clipPath></defs><g clip-path="url(#ad05aa8d85)"><path fill="#7dc855" d="M 381.933594 738.425781 C 177.035156 441.386719 139.003906 410.902344 139.003906 301.734375 C 139.003906 152.199219 260.226562 30.976562 409.761719 30.976562 C 559.296875 30.976562 680.515625 152.199219 680.515625 301.734375 C 680.515625 410.902344 642.484375 441.386719 437.585938 738.425781 C 424.140625 757.851562 395.378906 757.847656 381.933594 738.425781 Z M 381.933594 738.425781 " fill-opacity="1" fill-rule="nonzero"/></g><g fill="#ffffff" fill-opacity="1"><g transform="translate(170.144527, 405.06328)"><g><path d="M 121.5625 -227.28125 C 157.144531 -227.28125 184.40625 -217.40625 203.34375 -197.65625 C 222.28125 -177.914062 231.75 -149.910156 231.75 -113.640625 C 231.75 -77.367188 222.28125 -49.359375 203.34375 -29.609375 C 184.40625 -9.867188 157.144531 0 121.5625 0 L 25.140625 0 L 25.140625 -227.28125 Z M 115.703125 -44.765625 C 134.984375 -44.765625 149.039062 -50.5625 157.875 -62.15625 C 166.71875 -73.75 171.140625 -90.910156 171.140625 -113.640625 C 171.140625 -136.367188 166.71875 -153.53125 157.875 -165.125 C 149.039062 -176.71875 134.984375 -182.515625 115.703125 -182.515625 L 84.375 -182.515625 L 84.375 -44.765625 Z M 115.703125 -44.765625 "/></g></g></g><g fill="#ffffff" fill-opacity="1"><g transform="translate(417.396362, 405.06328)"><g><path d="M 125.6875 0 L 125.6875 -49.9375 L 14.8125 -49.9375 L 14.8125 -87.125 C 16.875 -90.789062 19.566406 -95.265625 22.890625 -100.546875 C 26.222656 -105.828125 30.1875 -111.910156 34.78125 -118.796875 L 108.8125 -227.28125 L 178.03125 -227.28125 L 178.03125 -90.5625 L 212.8125 -90.5625 L 212.8125 -49.9375 L 178.03125 -49.9375 L 178.03125 0 Z M 62.328125 -90.5625 L 126.375 -90.5625 L 126.375 -159.4375 C 126.375 -164.03125 126.488281 -168.796875 126.71875 -173.734375 C 126.945312 -178.671875 127.175781 -183.660156 127.40625 -188.703125 L 126.71875 -188.703125 C 124.425781 -183.890625 121.726562 -178.898438 118.625 -173.734375 C 115.53125 -168.566406 112.601562 -163.914062 109.84375 -159.78125 L 69.5625 -100.890625 C 68.414062 -99.054688 67.265625 -97.335938 66.109375 -95.734375 C 64.960938 -94.128906 63.703125 -92.40625 62.328125 -90.5625 Z M 62.328125 -90.5625 "/></g></g></g></svg>