<svg xmlns="http://www.w3.org/2000/svg" xmlns:xlink="http://www.w3.org/1999/xlink" width="1080" zoomAndPan="magnify" viewBox="0 0 810 809.999993" height="1080" preserveAspectRatio="xMidYMid meet" version="1.0"><defs><g/><clipPath id="d6e248d5bb"><path d="M 139 30.976562 L 681 30.976562 L 681 753 L 139 753 Z M 139 30.976562 " clip-rule="nonzero"/></clipPath></defs><g clip-path="url(#d6e248d5bb)"><path fill="#7dc855" d="M 381.933594 738.425781 C 177.035156 441.386719 139.003906 410.902344 139.003906 301.734375 C 139.003906 152.199219 260.226562 30.976562 409.761719 30.976562 C 559.296875 30.976562 680.515625 152.199219 680.515625 301.734375 C 680.515625 410.902344 642.484375 441.386719 437.585938 738.425781 C 424.140625 757.851562 395.378906 757.847656 381.933594 738.425781 Z M 381.933594 738.425781 " fill-opacity="1" fill-rule="nonzero"/></g><g fill="#ffffff" fill-opacity="1"><g transform="translate(180.99023, 405.063225)"><g><path d="M 121.5625 -227.28125 C 157.144531 -227.28125 184.40625 -217.40625 203.34375 -197.65625 C 222.28125 -177.914062 231.75 -149.910156 231.75 -113.640625 C 231.75 -77.367188 222.28125 -49.359375 203.34375 -29.609375 C 184.40625 -9.867188 157.144531 0 121.5625 0 L 25.140625 0 L 25.140625 -227.28125 Z M 115.703125 -44.765625 C 134.984375 -44.765625 149.039062 -50.5625 157.875 -62.15625 C 166.71875 -73.75 171.140625 -90.910156 171.140625 -113.640625 C 171.140625 -136.367188 166.71875 -153.53125 157.875 -165.125 C 149.039062 -176.71875 134.984375 -182.515625 115.703125 -182.515625 L 84.375 -182.515625 L 84.375 -44.765625 Z M 115.703125 -44.765625 "/></g></g></g><g fill="#ffffff" fill-opacity="1"><g transform="translate(428.242065, 405.063225)"><g><path d="M 98.484375 3.4375 C 78.742188 3.4375 61.582031 -0.40625 47 -8.09375 C 32.425781 -15.78125 20.203125 -28.347656 10.328125 -45.796875 L 62.328125 -71.625 C 64.847656 -62.445312 68.921875 -55.101562 74.546875 -49.59375 C 80.171875 -44.082031 88.609375 -41.328125 99.859375 -41.328125 C 106.984375 -41.328125 113.066406 -42.585938 118.109375 -45.109375 C 123.160156 -47.640625 127.117188 -51.367188 129.984375 -56.296875 C 132.859375 -61.234375 134.296875 -67.257812 134.296875 -74.375 C 134.296875 -81.269531 132.972656 -87.007812 130.328125 -91.59375 C 127.691406 -96.1875 123.847656 -99.6875 118.796875 -102.09375 C 113.753906 -104.507812 107.441406 -105.71875 99.859375 -105.71875 C 94.347656 -105.71875 89.410156 -105.203125 85.046875 -104.171875 C 80.691406 -103.140625 76.734375 -101.644531 73.171875 -99.6875 C 69.617188 -97.738281 66.347656 -95.269531 63.359375 -92.28125 L 18.59375 -100.546875 L 33.0625 -227.28125 L 176.3125 -227.28125 L 176.3125 -181.484375 L 76.109375 -181.484375 L 70.25 -136.015625 L 69.21875 -130.515625 L 69.5625 -130.515625 C 74.15625 -135.796875 80.582031 -139.8125 88.84375 -142.5625 C 97.101562 -145.320312 106.285156 -146.703125 116.390625 -146.703125 C 131.316406 -146.703125 144.054688 -143.71875 154.609375 -137.75 C 165.171875 -131.78125 173.320312 -123.628906 179.0625 -113.296875 C 184.800781 -102.960938 187.671875 -91.140625 187.671875 -77.828125 C 187.671875 -63.816406 185.316406 -51.703125 180.609375 -41.484375 C 175.910156 -31.273438 169.367188 -22.84375 160.984375 -16.1875 C 152.609375 -9.53125 143.082031 -4.59375 132.40625 -1.375 C 121.726562 1.832031 110.421875 3.4375 98.484375 3.4375 Z M 98.484375 3.4375 "/></g></g></g></svg>