<svg xmlns="http://www.w3.org/2000/svg" xmlns:xlink="http://www.w3.org/1999/xlink" width="1080" zoomAndPan="magnify" viewBox="0 0 810 809.999993" height="1080" preserveAspectRatio="xMidYMid meet" version="1.0"><defs><g/><clipPath id="f009c7bbb4"><path d="M 139 30.976562 L 681 30.976562 L 681 753 L 139 753 Z M 139 30.976562 " clip-rule="nonzero"/></clipPath></defs><g clip-path="url(#f009c7bbb4)"><path fill="#ff733c" d="M 381.933594 738.425781 C 177.035156 441.386719 139.003906 410.902344 139.003906 301.734375 C 139.003906 152.199219 260.226562 30.976562 409.761719 30.976562 C 559.296875 30.976562 680.515625 152.199219 680.515625 301.734375 C 680.515625 410.902344 642.484375 441.386719 437.585938 738.425781 C 424.140625 757.851562 395.378906 757.847656 381.933594 738.425781 Z M 381.933594 738.425781 " fill-opacity="1" fill-rule="nonzero"/></g><g fill="#ffffff" fill-opacity="1"><g transform="translate(176.167963, 405.06328)"><g><path d="M 113.984375 -230.71875 C 135.097656 -230.71875 153.75 -227.445312 169.9375 -220.90625 C 186.125 -214.363281 200.1875 -204.78125 212.125 -192.15625 L 183.546875 -153.921875 C 173.671875 -164.253906 163.050781 -172.003906 151.6875 -177.171875 C 140.320312 -182.335938 127.410156 -184.921875 112.953125 -184.921875 C 104.453125 -184.921875 97.5625 -184 92.28125 -182.15625 C 87.007812 -180.320312 83.222656 -177.796875 80.921875 -174.578125 C 78.628906 -171.367188 77.484375 -167.703125 77.484375 -163.578125 C 77.484375 -158.753906 79.71875 -154.675781 84.1875 -151.34375 C 88.664062 -148.019531 95.957031 -145.207031 106.0625 -142.90625 L 144.28125 -134.296875 C 167.007812 -129.015625 183.65625 -121.320312 194.21875 -111.21875 C 204.78125 -101.125 210.0625 -87.695312 210.0625 -70.9375 C 210.0625 -54.863281 205.925781 -41.257812 197.65625 -30.125 C 189.394531 -19 178.03125 -10.625 163.5625 -5 C 149.101562 0.625 132.578125 3.4375 113.984375 3.4375 C 98.828125 3.4375 84.363281 1.773438 70.59375 -1.546875 C 56.820312 -4.878906 44.425781 -9.644531 33.40625 -15.84375 C 22.382812 -22.039062 13.085938 -29.15625 5.515625 -37.1875 L 34.09375 -76.796875 C 39.832031 -70.140625 46.890625 -64.226562 55.265625 -59.0625 C 63.648438 -53.894531 72.832031 -49.816406 82.8125 -46.828125 C 92.800781 -43.847656 102.960938 -42.359375 113.296875 -42.359375 C 121.328125 -42.359375 128.039062 -43.160156 133.4375 -44.765625 C 138.832031 -46.367188 142.789062 -48.773438 145.3125 -51.984375 C 147.84375 -55.203125 149.109375 -58.992188 149.109375 -63.359375 C 149.109375 -68.179688 147.382812 -72.253906 143.9375 -75.578125 C 140.5 -78.910156 133.957031 -81.726562 124.3125 -84.03125 L 82.296875 -93.328125 C 69.441406 -96.304688 58.019531 -100.265625 48.03125 -105.203125 C 38.050781 -110.140625 30.191406 -116.796875 24.453125 -125.171875 C 18.710938 -133.554688 15.84375 -144.0625 15.84375 -156.6875 C 15.84375 -170.914062 19.742188 -183.597656 27.546875 -194.734375 C 35.347656 -205.867188 46.59375 -214.648438 61.28125 -221.078125 C 75.976562 -227.503906 93.546875 -230.71875 113.984375 -230.71875 Z M 113.984375 -230.71875 "/></g></g></g><g fill="#ffffff" fill-opacity="1"><g transform="translate(398.281336, 405.06328)"><g><path d="M 25.140625 0 L 25.140625 -227.28125 L 135.671875 -227.28125 C 163.679688 -227.050781 184.34375 -221.710938 197.65625 -211.265625 C 210.976562 -200.816406 217.640625 -185.722656 217.640625 -165.984375 C 217.640625 -153.128906 213.847656 -142.050781 206.265625 -132.75 C 198.691406 -123.445312 187.097656 -117.535156 171.484375 -115.015625 L 171.484375 -114.671875 C 188.929688 -112.378906 201.957031 -106.351562 210.5625 -96.59375 C 219.175781 -86.832031 223.484375 -75.066406 223.484375 -61.296875 C 223.484375 -41.785156 216.597656 -26.691406 202.828125 -16.015625 C 189.054688 -5.335938 168.394531 0 140.84375 0 Z M 82.296875 -41.671875 L 130.859375 -41.671875 C 141.648438 -41.671875 149.679688 -43.847656 154.953125 -48.203125 C 160.234375 -52.566406 162.875 -58.882812 162.875 -67.15625 C 162.875 -75.1875 160.234375 -81.320312 154.953125 -85.5625 C 149.679688 -89.8125 141.648438 -91.9375 130.859375 -91.9375 L 82.296875 -91.9375 Z M 82.296875 -134.296875 L 125.34375 -134.296875 C 146.46875 -134.296875 157.03125 -142.5625 157.03125 -159.09375 C 157.03125 -175.625 146.46875 -183.890625 125.34375 -183.890625 L 82.296875 -183.890625 Z M 82.296875 -134.296875 "/></g></g></g></svg>