<svg xmlns="http://www.w3.org/2000/svg" xmlns:xlink="http://www.w3.org/1999/xlink" width="1080" zoomAndPan="magnify" viewBox="0 0 810 809.999993" height="1080" preserveAspectRatio="xMidYMid meet" version="1.0"><defs><g/><clipPath id="d1867a6c48"><path d="M 139 30.976562 L 681 30.976562 L 681 753 L 139 753 Z M 139 30.976562 " clip-rule="nonzero"/></clipPath></defs><g clip-path="url(#d1867a6c48)"><path fill="#ff733c" d="M 381.933594 738.425781 C 177.035156 441.386719 139.003906 410.902344 139.003906 301.734375 C 139.003906 152.199219 260.226562 30.976562 409.761719 30.976562 C 559.296875 30.976562 680.515625 152.199219 680.515625 301.734375 C 680.515625 410.902344 642.484375 441.386719 437.585938 738.425781 C 424.140625 757.851562 395.378906 757.847656 381.933594 738.425781 Z M 381.933594 738.425781 " fill-opacity="1" fill-rule="nonzero"/></g><g fill="#ffffff" fill-opacity="1"><g transform="translate(176.683588, 405.063225)"><g><path d="M 113.984375 -230.71875 C 135.097656 -230.71875 153.75 -227.445312 169.9375 -220.90625 C 186.125 -214.363281 200.1875 -204.78125 212.125 -192.15625 L 183.546875 -153.921875 C 173.671875 -164.253906 163.050781 -172.003906 151.6875 -177.171875 C 140.320312 -182.335938 127.410156 -184.921875 112.953125 -184.921875 C 104.453125 -184.921875 97.5625 -184 92.28125 -182.15625 C 87.007812 -180.320312 83.222656 -177.796875 80.921875 -174.578125 C 78.628906 -171.367188 77.484375 -167.703125 77.484375 -163.578125 C 77.484375 -158.753906 79.71875 -154.675781 84.1875 -151.34375 C 88.664062 -148.019531 95.957031 -145.207031 106.0625 -142.90625 L 144.28125 -134.296875 C 167.007812 -129.015625 183.65625 -121.320312 194.21875 -111.21875 C 204.78125 -101.125 210.0625 -87.695312 210.0625 -70.9375 C 210.0625 -54.863281 205.925781 -41.257812 197.65625 -30.125 C 189.394531 -19 178.03125 -10.625 163.5625 -5 C 149.101562 0.625 132.578125 3.4375 113.984375 3.4375 C 98.828125 3.4375 84.363281 1.773438 70.59375 -1.546875 C 56.820312 -4.878906 44.425781 -9.644531 33.40625 -15.84375 C 22.382812 -22.039062 13.085938 -29.15625 5.515625 -37.1875 L 34.09375 -76.796875 C 39.832031 -70.140625 46.890625 -64.226562 55.265625 -59.0625 C 63.648438 -53.894531 72.832031 -49.816406 82.8125 -46.828125 C 92.800781 -43.847656 102.960938 -42.359375 113.296875 -42.359375 C 121.328125 -42.359375 128.039062 -43.160156 133.4375 -44.765625 C 138.832031 -46.367188 142.789062 -48.773438 145.3125 -51.984375 C 147.84375 -55.203125 149.109375 -58.992188 149.109375 -63.359375 C 149.109375 -68.179688 147.382812 -72.253906 143.9375 -75.578125 C 140.5 -78.910156 133.957031 -81.726562 124.3125 -84.03125 L 82.296875 -93.328125 C 69.441406 -96.304688 58.019531 -100.265625 48.03125 -105.203125 C 38.050781 -110.140625 30.191406 -116.796875 24.453125 -125.171875 C 18.710938 -133.554688 15.84375 -144.0625 15.84375 -156.6875 C 15.84375 -170.914062 19.742188 -183.597656 27.546875 -194.734375 C 35.347656 -205.867188 46.59375 -214.648438 61.28125 -221.078125 C 75.976562 -227.503906 93.546875 -230.71875 113.984375 -230.71875 Z M 113.984375 -230.71875 "/></g></g></g><g fill="#ffffff" fill-opacity="1"><g transform="translate(398.796962, 405.063225)"><g><path d="M 226.59375 -65.078125 C 222.226562 -49.242188 215.222656 -36.21875 205.578125 -26 C 195.941406 -15.78125 184.460938 -8.316406 171.140625 -3.609375 C 157.828125 1.085938 143.132812 3.4375 127.0625 3.4375 C 104.101562 3.4375 84.242188 -1.207031 67.484375 -10.5 C 50.734375 -19.800781 37.878906 -33.175781 28.921875 -50.625 C 19.972656 -68.070312 15.5 -89.078125 15.5 -113.640625 C 15.5 -138.203125 19.972656 -159.207031 28.921875 -176.65625 C 37.878906 -194.101562 50.734375 -207.472656 67.484375 -216.765625 C 84.242188 -226.066406 103.988281 -230.71875 126.71875 -230.71875 C 142.5625 -230.71875 157.140625 -228.476562 170.453125 -224 C 183.773438 -219.53125 195.023438 -212.703125 204.203125 -203.515625 C 213.390625 -194.328125 219.929688 -182.503906 223.828125 -168.046875 L 171.828125 -147.046875 C 168.617188 -161.273438 163.394531 -171.03125 156.15625 -176.3125 C 148.925781 -181.59375 139.804688 -184.234375 128.796875 -184.234375 C 118.003906 -184.234375 108.644531 -181.59375 100.71875 -176.3125 C 92.800781 -171.03125 86.71875 -163.164062 82.46875 -152.71875 C 78.226562 -142.28125 76.109375 -129.253906 76.109375 -113.640625 C 76.109375 -98.253906 78.054688 -85.28125 81.953125 -74.71875 C 85.859375 -64.164062 91.769531 -56.25 99.6875 -50.96875 C 107.613281 -45.6875 117.429688 -43.046875 129.140625 -43.046875 C 140.148438 -43.046875 149.5 -46.085938 157.1875 -52.171875 C 164.882812 -58.253906 170.113281 -67.609375 172.875 -80.234375 Z M 226.59375 -65.078125 "/></g></g></g></svg>