<svg xmlns="http://www.w3.org/2000/svg" xmlns:xlink="http://www.w3.org/1999/xlink" width="1080" zoomAndPan="magnify" viewBox="0 0 810 809.999993" height="1080" preserveAspectRatio="xMidYMid meet" version="1.0"><defs><g/><clipPath id="d9ace30372"><path d="M 139 30.976562 L 681 30.976562 L 681 753 L 139 753 Z M 139 30.976562 " clip-rule="nonzero"/></clipPath></defs><g clip-path="url(#d9ace30372)"><path fill="#ff733c" d="M 381.933594 738.425781 C 177.035156 441.386719 139.003906 410.902344 139.003906 301.734375 C 139.003906 152.199219 260.226562 30.976562 409.761719 30.976562 C 559.296875 30.976562 680.515625 152.199219 680.515625 301.734375 C 680.515625 410.902344 642.484375 441.386719 437.585938 738.425781 C 424.140625 757.851562 395.378906 757.847656 381.933594 738.425781 Z M 381.933594 738.425781 " fill-opacity="1" fill-rule="nonzero"/></g><g fill="#ffffff" fill-opacity="1"><g transform="translate(170.314447, 405.06328)"><g><path d="M 113.984375 -230.71875 C 135.097656 -230.71875 153.75 -227.445312 169.9375 -220.90625 C 186.125 -214.363281 200.1875 -204.78125 212.125 -192.15625 L 183.546875 -153.921875 C 173.671875 -164.253906 163.050781 -172.003906 151.6875 -177.171875 C 140.320312 -182.335938 127.410156 -184.921875 112.953125 -184.921875 C 104.453125 -184.921875 97.5625 -184 92.28125 -182.15625 C 87.007812 -180.320312 83.222656 -177.796875 80.921875 -174.578125 C 78.628906 -171.367188 77.484375 -167.703125 77.484375 -163.578125 C 77.484375 -158.753906 79.71875 -154.675781 84.1875 -151.34375 C 88.664062 -148.019531 95.957031 -145.207031 106.0625 -142.90625 L 144.28125 -134.296875 C 167.007812 -129.015625 183.65625 -121.320312 194.21875 -111.21875 C 204.78125 -101.125 210.0625 -87.695312 210.0625 -70.9375 C 210.0625 -54.863281 205.925781 -41.257812 197.65625 -30.125 C 189.394531 -19 178.03125 -10.625 163.5625 -5 C 149.101562 0.625 132.578125 3.4375 113.984375 3.4375 C 98.828125 3.4375 84.363281 1.773438 70.59375 -1.546875 C 56.820312 -4.878906 44.425781 -9.644531 33.40625 -15.84375 C 22.382812 -22.039062 13.085938 -29.15625 5.515625 -37.1875 L 34.09375 -76.796875 C 39.832031 -70.140625 46.890625 -64.226562 55.265625 -59.0625 C 63.648438 -53.894531 72.832031 -49.816406 82.8125 -46.828125 C 92.800781 -43.847656 102.960938 -42.359375 113.296875 -42.359375 C 121.328125 -42.359375 128.039062 -43.160156 133.4375 -44.765625 C 138.832031 -46.367188 142.789062 -48.773438 145.3125 -51.984375 C 147.84375 -55.203125 149.109375 -58.992188 149.109375 -63.359375 C 149.109375 -68.179688 147.382812 -72.253906 143.9375 -75.578125 C 140.5 -78.910156 133.957031 -81.726562 124.3125 -84.03125 L 82.296875 -93.328125 C 69.441406 -96.304688 58.019531 -100.265625 48.03125 -105.203125 C 38.050781 -110.140625 30.191406 -116.796875 24.453125 -125.171875 C 18.710938 -133.554688 15.84375 -144.0625 15.84375 -156.6875 C 15.84375 -170.914062 19.742188 -183.597656 27.546875 -194.734375 C 35.347656 -205.867188 46.59375 -214.648438 61.28125 -221.078125 C 75.976562 -227.503906 93.546875 -230.71875 113.984375 -230.71875 Z M 113.984375 -230.71875 "/></g></g></g><g fill="#ffffff" fill-opacity="1"><g transform="translate(392.427821, 405.06328)"><g><path d="M 121.5625 -227.28125 C 157.144531 -227.28125 184.40625 -217.40625 203.34375 -197.65625 C 222.28125 -177.914062 231.75 -149.910156 231.75 -113.640625 C 231.75 -77.367188 222.28125 -49.359375 203.34375 -29.609375 C 184.40625 -9.867188 157.144531 0 121.5625 0 L 25.140625 0 L 25.140625 -227.28125 Z M 115.703125 -44.765625 C 134.984375 -44.765625 149.039062 -50.5625 157.875 -62.15625 C 166.71875 -73.75 171.140625 -90.910156 171.140625 -113.640625 C 171.140625 -136.367188 166.71875 -153.53125 157.875 -165.125 C 149.039062 -176.71875 134.984375 -182.515625 115.703125 -182.515625 L 84.375 -182.515625 L 84.375 -44.765625 Z M 115.703125 -44.765625 "/></g></g></g></svg>